<svg width="160" height="30" viewBox="0 0 160 30" fill="none" xmlns="http://www.w3.org/2000/svg">
<path d="M159.595 26C158.867 26.152 158.147 26.212 157.435 26.18C156.731 26.148 156.099 25.996 155.539 25.724C154.987 25.452 154.567 25.028 154.279 24.452C154.047 23.972 153.919 23.488 153.895 23C153.879 22.504 153.871 21.94 153.871 21.308V9.44H155.623V21.236C155.623 21.78 155.627 22.236 155.635 22.604C155.651 22.964 155.735 23.284 155.887 23.564C156.175 24.1 156.631 24.42 157.255 24.524C157.887 24.628 158.667 24.604 159.595 24.452V26ZM151.099 14.552V13.04H159.595V14.552H151.099Z" fill="#fff"/>
<path d="M143.984 26.36C142.72 26.36 141.624 26.08 140.696 25.52C139.776 24.96 139.06 24.172 138.548 23.156C138.036 22.14 137.78 20.948 137.78 19.58C137.78 18.164 138.032 16.94 138.536 15.908C139.04 14.876 139.748 14.08 140.66 13.52C141.58 12.96 142.664 12.68 143.912 12.68C145.192 12.68 146.284 12.976 147.188 13.568C148.092 14.152 148.776 14.992 149.24 16.088C149.704 17.184 149.916 18.492 149.876 20.012H148.076V19.388C148.044 17.708 147.68 16.44 146.984 15.584C146.296 14.728 145.288 14.3 143.96 14.3C142.568 14.3 141.5 14.752 140.756 15.656C140.02 16.56 139.652 17.848 139.652 19.52C139.652 21.152 140.02 22.42 140.756 23.324C141.5 24.22 142.552 24.668 143.912 24.668C144.84 24.668 145.648 24.456 146.336 24.032C147.032 23.6 147.58 22.98 147.98 22.172L149.624 22.808C149.112 23.936 148.356 24.812 147.356 25.436C146.364 26.052 145.24 26.36 143.984 26.36ZM139.028 20.012V18.536H148.928V20.012H139.028Z" fill="#fff"/>
<path d="M133.139 26V8.35999H134.903V26H133.139Z" fill="#fff"/>
<path d="M127.537 26V8.35999H129.301V26H127.537Z" fill="#fff"/>
<path d="M117.669 26.36C116.693 26.36 115.873 26.184 115.209 25.832C114.553 25.48 114.061 25.012 113.733 24.428C113.405 23.844 113.241 23.208 113.241 22.52C113.241 21.816 113.381 21.216 113.661 20.72C113.949 20.216 114.337 19.804 114.825 19.484C115.321 19.164 115.893 18.92 116.541 18.752C117.197 18.592 117.921 18.452 118.713 18.332C119.513 18.204 120.293 18.096 121.053 18.008C121.821 17.912 122.493 17.82 123.069 17.732L122.445 18.116C122.469 16.836 122.221 15.888 121.701 15.272C121.181 14.656 120.277 14.348 118.989 14.348C118.101 14.348 117.349 14.548 116.733 14.948C116.125 15.348 115.697 15.98 115.449 16.844L113.733 16.34C114.029 15.18 114.625 14.28 115.521 13.64C116.417 13 117.581 12.68 119.013 12.68C120.197 12.68 121.201 12.904 122.025 13.352C122.857 13.792 123.445 14.432 123.789 15.272C123.949 15.648 124.053 16.068 124.101 16.532C124.149 16.996 124.173 17.468 124.173 17.948V26H122.601V22.748L123.057 22.94C122.617 24.052 121.933 24.9 121.005 25.484C120.077 26.068 118.965 26.36 117.669 26.36ZM117.873 24.836C118.697 24.836 119.417 24.688 120.033 24.392C120.649 24.096 121.145 23.692 121.521 23.18C121.897 22.66 122.141 22.076 122.253 21.428C122.349 21.012 122.401 20.556 122.409 20.06C122.417 19.556 122.421 19.18 122.421 18.932L123.093 19.28C122.493 19.36 121.841 19.44 121.137 19.52C120.441 19.6 119.753 19.692 119.073 19.796C118.401 19.9 117.793 20.024 117.249 20.168C116.881 20.272 116.525 20.42 116.181 20.612C115.837 20.796 115.553 21.044 115.329 21.356C115.113 21.668 115.005 22.056 115.005 22.52C115.005 22.896 115.097 23.26 115.281 23.612C115.473 23.964 115.777 24.256 116.193 24.488C116.617 24.72 117.177 24.836 117.873 24.836Z" fill="#fff"/>
<path d="M96.2942 26L91.3022 8.71997H93.1382L97.1822 22.988L101.202 8.73197L103.05 8.71997L107.094 22.988L111.114 8.71997H112.962L107.982 26H106.206L102.126 11.828L98.0702 26H96.2942Z" fill="#fff"/>
<path d="M79.6482 26L79.6722 8.71997H82.6002V19.28L87.3402 13.04H90.9522L85.9242 19.52L91.3842 26H87.5562L82.6002 19.76V26H79.6482Z" fill="#fff"/>
<path d="M73.6128 26V19.76C73.6128 19.352 73.5848 18.9 73.5288 18.404C73.4728 17.908 73.3408 17.432 73.1328 16.976C72.9328 16.512 72.6288 16.132 72.2208 15.836C71.8208 15.54 71.2768 15.392 70.5888 15.392C70.2208 15.392 69.8568 15.452 69.4968 15.572C69.1368 15.692 68.8088 15.9 68.5128 16.196C68.2248 16.484 67.9928 16.884 67.8168 17.396C67.6408 17.9 67.5528 18.548 67.5528 19.34L65.8368 18.608C65.8368 17.504 66.0488 16.504 66.4728 15.608C66.9048 14.712 67.5368 14 68.3688 13.472C69.2008 12.936 70.2248 12.668 71.4408 12.668C72.4008 12.668 73.1928 12.828 73.8168 13.148C74.4408 13.468 74.9368 13.876 75.3048 14.372C75.6728 14.868 75.9448 15.396 76.1208 15.956C76.2968 16.516 76.4088 17.048 76.4568 17.552C76.5128 18.048 76.5408 18.452 76.5408 18.764V26H73.6128ZM64.6248 26V13.04H67.2048V17.06H67.5528V26H64.6248Z" fill="#fff"/>
<path d="M54.4446 26.36C53.5086 26.36 52.7166 26.184 52.0686 25.832C51.4206 25.472 50.9286 24.996 50.5926 24.404C50.2646 23.812 50.1006 23.16 50.1006 22.448C50.1006 21.824 50.2046 21.264 50.4126 20.768C50.6206 20.264 50.9406 19.832 51.3726 19.472C51.8046 19.104 52.3646 18.804 53.0526 18.572C53.5726 18.404 54.1806 18.252 54.8766 18.116C55.5806 17.98 56.3406 17.856 57.1566 17.744C57.9806 17.624 58.8406 17.496 59.7366 17.36L58.7046 17.948C58.7126 17.052 58.5126 16.392 58.1046 15.968C57.6966 15.544 57.0086 15.332 56.0406 15.332C55.4566 15.332 54.8926 15.468 54.3486 15.74C53.8046 16.012 53.4246 16.48 53.2086 17.144L50.5686 16.316C50.8886 15.22 51.4966 14.34 52.3926 13.676C53.2966 13.012 54.5126 12.68 56.0406 12.68C57.1926 12.68 58.2046 12.868 59.0766 13.244C59.9566 13.62 60.6086 14.236 61.0326 15.092C61.2646 15.548 61.4046 16.016 61.4526 16.496C61.5006 16.968 61.5246 17.484 61.5246 18.044V26H58.9926V23.192L59.4126 23.648C58.8286 24.584 58.1446 25.272 57.3606 25.712C56.5846 26.144 55.6126 26.36 54.4446 26.36ZM55.0206 24.056C55.6766 24.056 56.2366 23.94 56.7006 23.708C57.1646 23.476 57.5326 23.192 57.8046 22.856C58.0846 22.52 58.2726 22.204 58.3686 21.908C58.5206 21.54 58.6046 21.12 58.6206 20.648C58.6446 20.168 58.6566 19.78 58.6566 19.484L59.5446 19.748C58.6726 19.884 57.9246 20.004 57.3006 20.108C56.6766 20.212 56.1406 20.312 55.6926 20.408C55.2446 20.496 54.8486 20.596 54.5046 20.708C54.1686 20.828 53.8846 20.968 53.6526 21.128C53.4206 21.288 53.2406 21.472 53.1126 21.68C52.9926 21.888 52.9326 22.132 52.9326 22.412C52.9326 22.732 53.0126 23.016 53.1726 23.264C53.3326 23.504 53.5646 23.696 53.8686 23.84C54.1806 23.984 54.5646 24.056 55.0206 24.056Z" fill="#fff"/>
<path d="M35.6801 26V8.71997H42.5321C43.7001 8.71997 44.6561 8.95597 45.4001 9.42797C46.1521 9.89197 46.7081 10.488 47.0681 11.216C47.4361 11.944 47.6201 12.696 47.6201 13.472C47.6201 14.424 47.3921 15.232 46.9361 15.896C46.4881 16.56 45.8761 17.008 45.1001 17.24V16.64C46.1881 16.888 47.0121 17.404 47.5721 18.188C48.1401 18.972 48.4241 19.864 48.4241 20.864C48.4241 21.888 48.2281 22.784 47.8361 23.552C47.4441 24.32 46.8601 24.92 46.0841 25.352C45.3161 25.784 44.3641 26 43.2281 26H35.6801ZM38.6081 23.276H42.8681C43.3721 23.276 43.8241 23.176 44.2241 22.976C44.6241 22.768 44.9361 22.48 45.1601 22.112C45.3921 21.736 45.5081 21.292 45.5081 20.78C45.5081 20.316 45.4081 19.9 45.2081 19.532C45.0081 19.164 44.7161 18.872 44.3321 18.656C43.9481 18.432 43.4881 18.32 42.9521 18.32H38.6081V23.276ZM38.6081 15.62H42.4961C42.9121 15.62 43.2841 15.54 43.6121 15.38C43.9401 15.22 44.2001 14.984 44.3921 14.672C44.5841 14.36 44.6801 13.976 44.6801 13.52C44.6801 12.92 44.4881 12.42 44.1041 12.02C43.7201 11.62 43.1841 11.42 42.4961 11.42H38.6081V15.62Z" fill="#fff"/>
<path fill-rule="evenodd" clip-rule="evenodd" d="M13.258 0.207275C13.712 -0.0690917 14.288 -0.0690917 14.742 0.207275L25.942 7.02546C26.4716 7.34787 26.7179 7.97299 26.5457 8.55775C26.3736 9.14251 25.8246 9.54545 25.2 9.54545H2.8C2.17545 9.54545 1.62643 9.14251 1.45425 8.55775C1.28207 7.97299 1.52838 7.34787 2.058 7.02546L13.258 0.207275ZM7.68151 6.81818H20.3185L14 2.9717L7.68151 6.81818ZM5.6 12.2727C6.3732 12.2727 7 12.8832 7 13.6364V23.1818C7 23.9349 6.3732 24.5455 5.6 24.5455C4.8268 24.5455 4.2 23.9349 4.2 23.1818V13.6364C4.2 12.8832 4.8268 12.2727 5.6 12.2727ZM11.2 12.2727C11.9732 12.2727 12.6 12.8832 12.6 13.6364V23.1818C12.6 23.9349 11.9732 24.5455 11.2 24.5455C10.4268 24.5455 9.8 23.9349 9.8 23.1818V13.6364C9.8 12.8832 10.4268 12.2727 11.2 12.2727ZM16.8 12.2727C17.5732 12.2727 18.2 12.8832 18.2 13.6364V23.1818C18.2 23.9349 17.5732 24.5455 16.8 24.5455C16.0268 24.5455 15.4 23.9349 15.4 23.1818V13.6364C15.4 12.8832 16.0268 12.2727 16.8 12.2727ZM22.4 12.2727C23.1732 12.2727 23.8 12.8832 23.8 13.6364V23.1818C23.8 23.9349 23.1732 24.5455 22.4 24.5455C21.6268 24.5455 21 23.9349 21 23.1818V13.6364C21 12.8832 21.6268 12.2727 22.4 12.2727ZM0 28.6364C0 27.8832 0.626801 27.2727 1.4 27.2727H26.6C27.3732 27.2727 28 27.8832 28 28.6364C28 29.3895 27.3732 30 26.6 30H1.4C0.626801 30 0 29.3895 0 28.6364Z" fill="#1A73E8"/>
</svg>
